<?xml version="1.0" encoding="utf-8"?>
<!-- Generator: Adobe Illustrator 19.0.0, SVG Export Plug-In . SVG Version: 6.00 Build 0)  -->
<svg version="1.1" id="Layer_1" xmlns="http://www.w3.org/2000/svg" xmlns:xlink="http://www.w3.org/1999/xlink" x="0px" y="0px"
	 viewBox="0 0 1280 800" style="enable-background:new 0 0 1280 800;" xml:space="preserve">
<style type="text/css">
	.st0{fill:none;stroke:#F7931E;stroke-width:2;stroke-linecap:round;stroke-miterlimit:10;}
	.st1{fill:none;stroke:#F7931E;stroke-width:2;stroke-linecap:round;stroke-miterlimit:10;stroke-dasharray:11.915,11.915;}
	.st2{fill:#FFAF5F;}
	.st3{fill:none;stroke:#FFFFFF;stroke-width:2;stroke-linecap:round;stroke-linejoin:round;}
	.st4{fill:none;stroke:#FFFFFF;stroke-width:2;stroke-linecap:round;stroke-linejoin:round;stroke-dasharray:7.9762,7.9762;}
	.st5{fill:#FFFFFF;}
</style>
<g id="XMLID_33_">
	<g id="XMLID_6_">
		<g id="XMLID_35_">
			<line id="XMLID_38_" class="st0" x1="74" y1="719" x2="78.4" y2="714.9"/>
			<polyline id="XMLID_37_" class="st1" points="87,706.7 236,566 401,567 556,521 737,505 1032,351 1193.2,324.9 			"/>
			<line id="XMLID_36_" class="st0" x1="1199.1" y1="324" x2="1205" y2="323"/>
		</g>
	</g>
	<g id="XMLID_21_">
		<circle id="XMLID_15_" class="st2" cx="75" cy="720" r="6"/>
		<circle id="XMLID_14_" class="st2" cx="235" cy="565" r="6"/>
		<circle id="XMLID_16_" class="st2" cx="404" cy="567" r="6"/>
		<circle id="XMLID_17_" class="st2" cx="563" cy="521" r="6"/>
		<circle id="XMLID_18_" class="st2" cx="730" cy="506" r="6"/>
		<circle id="XMLID_19_" class="st2" cx="1032" cy="351" r="6"/>
		<circle id="XMLID_20_" class="st2" cx="1205" cy="323" r="6"/>
	</g>
</g>
<g id="XMLID_34_">
	<g id="XMLID_39_">
		<g id="XMLID_28_">
			<line id="XMLID_31_" class="st3" x1="79" y1="695" x2="82.7" y2="693.4"/>
			<polyline id="XMLID_30_" class="st4" points="89.9,690.1 230,628 405,657 563,599 733,439 1030,340 1199.6,84.7 			"/>
			<line id="XMLID_29_" class="st3" x1="1201.8" y1="81.3" x2="1204" y2="78"/>
		</g>
	</g>
	<g id="XMLID_7_">
		<circle id="XMLID_8_" class="st5" cx="227.3" cy="629.3" r="5.3"/>
		<circle id="XMLID_9_" class="st5" cx="79.3" cy="695.3" r="5.3"/>
		<circle id="XMLID_10_" class="st5" cx="405.3" cy="657.3" r="5.3"/>
		<circle id="XMLID_11_" class="st5" cx="563.3" cy="597.3" r="5.3"/>
		<circle id="XMLID_12_" class="st5" cx="1030.3" cy="339.3" r="5.3"/>
		<circle id="XMLID_13_" class="st5" cx="733.3" cy="439.3" r="5.3"/>
		<circle id="XMLID_22_" class="st5" cx="1204.3" cy="78.3" r="5.3"/>
	</g>
</g>
</svg>
