<?xml version="1.0" encoding="UTF-8"?>
<svg enable-background="new -449 593 100 96" version="1.1" viewBox="-449 593 100 96" xml:space="preserve" xmlns="http://www.w3.org/2000/svg">
<style type="text/css">
	.st0{fill:#263238;}
	.st1{fill:#4A148C;}
	.st2{fill:#283593;}
</style>
<path class="st0" d="m-351.1 597.3h-95.6c-0.6 0-1.1 0.5-1.1 1.1v68.7c0 0.6 0.5 1.1 1.1 1.1h46.7v7.6c-1.8 0.5-3.1 2.1-3.1 4 0 2.3 1.9 4.2 4.2 4.2s4.2-1.9 4.2-4.2c0-1.9-1.3-3.5-3.1-4v-7.7h46.7c0.6 0 1.1-0.5 1.1-1.1v-68.7c0-0.6-0.5-1-1.1-1zm-45.8 82.5c0 1.1-0.9 2-2 2s-2-0.9-2-2 0.9-2 2-2 2 0.9 2 2zm44.7-80.4v61.9h-93.5v-61.9h93.5zm-93.5 66.5v-2.4h93.5v2.4h-93.5z"/>
<path class="st0" d="m-437.9 604.1h77.3c0.6 0 1.1-0.5 1.1-1.1s-0.5-1.1-1.1-1.1h-77.3c-0.6 0-1.1 0.5-1.1 1.1s0.5 1.1 1.1 1.1z"/>
<path class="st1" d="m-378.6 651.1l-2.8-2.8c0.9-1.3 1.4-2.9 1.4-4.5 0-4.4-3.6-8-8-8s-8 3.6-8 8 3.6 8 8 8c1.9 0 3.7-0.7 5-1.8l2.8 2.8c0.2 0.2 0.5 0.3 0.8 0.3s0.6-0.1 0.8-0.3c0.5-0.5 0.5-1.2 0-1.7zm-15.1-7.4c0-3.2 2.6-5.7 5.7-5.7 3.2 0 5.7 2.6 5.7 5.7 0 3.2-2.6 5.7-5.7 5.7s-5.7-2.5-5.7-5.7z"/>
<path class="st2" d="m-411.4 649.9h-7.1c-0.6 0-1.1-0.5-1.1-1.1v-18.5c0-0.6 0.5-1.1 1.1-1.1h7.1c0.6 0 1.1 0.5 1.1 1.1v18.5c0 0.7-0.5 1.1-1.1 1.1zm-6-2.2h4.9v-16.3h-4.9v16.3z"/>
<path class="st2" d="m-400.3 649.9h-7.1c-0.6 0-1.1-0.5-1.1-1.1v-34c0-0.6 0.5-1.1 1.1-1.1h7.1c0.6 0 1.1 0.5 1.1 1.1v34c0.1 0.7-0.4 1.1-1.1 1.1zm-6-2.2h4.9v-31.7h-4.9v31.7z"/>
<path class="st2" d="m-396.3 636.8c-0.6 0-1.1-0.5-1.1-1.1v-10.5c0-0.6 0.5-1.1 1.1-1.1h7c0.6 0 1.1 0.5 1.1 1.1v6.8c0 0.6-0.5 1.1-1.1 1.1s-1.1-0.5-1.1-1.1v-5.7h-4.8v9.4c0 0.6-0.5 1.1-1.1 1.1z"/>
</svg>
