<?xml version="1.0" encoding="UTF-8"?>
<svg enable-background="new -449 576.5 100 100" version="1.1" viewBox="-449 576.5 100 100" xml:space="preserve" xmlns="http://www.w3.org/2000/svg">
<style type="text/css">
	.st0{fill:#7A0B0B;}
	.st1{fill:#9B1919;}
</style>
<path class="st0" d="m-385.4 646.1c-0.3 0.1-0.7 0.1-1 0-18.3-6.9-34.4-2.9-37.5-2-0.4 0.1-0.6 0.2-0.6 0.2-0.7 0.2-1.4 0-1.8-0.6-8.3-11.2-6.9-23.3-6.8-23.8 0.1-0.6 0.5-1.1 1.1-1.3 19.2-5.8 27.4-16.5 31.4-21.6 0.5-0.6 1.3-0.8 2-0.4s1 1.2 0.7 1.9c-1.9 5.1-1.4 14.4 1.3 23.8 2.7 9.5 7.3 17.7 11.6 21 0.6 0.5 0.8 1.3 0.4 2 0 0.4-0.4 0.7-0.8 0.8zm-38.9-5.2c3.6-1 17.1-4 33.2 0.3-3.3-4.5-6.3-10.8-8.3-18-2-7.1-2.9-14-2.5-19.5-5 5.6-13.4 12.9-28 17.5-0.2 2.9 0 11.5 5.6 19.7z"/>
<path class="st0" d="m-380.1 647.7c-5.5 1.6-14.2-6.4-19.4-24.4s-2.1-29.4 3.4-31 14.2 6.4 19.4 24.4 2.1 29.4-3.4 31zm-15.1-52.3c-4 1.1-5.5 12.5-1.3 27s11.5 23.4 15.5 22.2c4-1.1 5.5-12.5 1.3-27s-11.5-23.4-15.5-22.2z"/>
<path class="st0" d="m-424.6 644.2l-3 0.8c-4.4 1.3-9.5-3.4-11.5-10.5-2.1-7.2-0.2-13.8 4.2-15.1l3.4-1 0.9 3-3.4 1c-2.3 0.7-3.7 5.4-2 11.2s5.4 9 7.7 8.4l3.1-0.8 0.6 3z"/>
<path class="st1" d="m-389.6 609.7c-0.6 0.2-1.3 0-1.7-0.5-0.5-0.7-0.4-1.7 0.2-2.2l21.3-17.3c0.7-0.5 1.7-0.4 2.2 0.2 0.5 0.7 0.4 1.7-0.2 2.2l-21.3 17.3c-0.1 0.1-0.3 0.2-0.5 0.3z"/>
<path class="st1" d="m-355.7 636c-0.2 0.1-0.4 0.1-0.6 0l-27.2-3.3c-0.9-0.1-1.5-0.9-1.4-1.8s0.9-1.5 1.8-1.4l27.2 3.3c0.9 0.1 1.5 0.9 1.4 1.8-0.2 0.8-0.6 1.3-1.2 1.4z"/>
<path class="st1" d="m-357.9 613.2l-28.5 7.8c-0.8 0.2-1.7-0.3-1.9-1.1s0.3-1.7 1.1-1.9l28.4-7.8c0.8-0.2 1.7 0.3 1.9 1.1 0.4 0.8-0.1 1.7-1 1.9z"/>
<path class="st0" d="m-411.6 659.3c-2.5 0.7-5.2-0.7-5.9-3.3l-4.4-15.3 9.5-1.3 4 14c0.8 2.5-0.7 5.1-3.2 5.9zm-6.2-15.9l3.4 11.8c0.2 0.9 1.1 1.3 2 1.1s1.3-1.1 1.1-2l-3.3-11.3-3.2 0.4z"/>
</svg>
