<?xml version="1.0" encoding="utf-8"?>
<!-- Generator: Adobe Illustrator 19.0.0, SVG Export Plug-In . SVG Version: 6.00 Build 0)  -->
<svg version="1.1" id="Layer_1" xmlns="http://www.w3.org/2000/svg" xmlns:xlink="http://www.w3.org/1999/xlink" x="0px" y="0px"
	 viewBox="-49 38 100 96" enable-background="new -49 38 100 96" xml:space="preserve">
<path d="M48.8,44.5h-95.6c-0.6,0-1.1,0.5-1.1,1.1v68.7c0,0.6,0.5,1.1,1.1,1.1h46.7v7.6c-1.8,0.5-3.1,2.1-3.1,4
	c0,2.3,1.9,4.2,4.2,4.2s4.2-1.9,4.2-4.2c0-1.9-1.3-3.5-3.1-4v-7.7h46.7c0.6,0,1.1-0.5,1.1-1.1V45.5C49.9,44.9,49.4,44.5,48.8,44.5z
	 M3,127c0,1.1-0.9,2-2,2s-2-0.9-2-2c0-1.1,0.9-2,2-2S3,125.9,3,127z M47.7,46.6v61.9h-93.5V46.6H47.7z M-45.8,113.1v-2.4h93.5v2.4
	H-45.8z"/>
<path d="M-38,51.3h77.3c0.6,0,1.1-0.5,1.1-1.1c0-0.6-0.5-1.1-1.1-1.1H-38c-0.6,0-1.1,0.5-1.1,1.1C-39.1,50.8-38.6,51.3-38,51.3z"/>
<path d="M21.3,98.3l-2.8-2.8c0.9-1.3,1.4-2.9,1.4-4.5c0-4.4-3.6-8-8-8s-8,3.6-8,8s3.6,8,8,8c1.9,0,3.7-0.7,5-1.8l2.8,2.8
	c0.2,0.2,0.5,0.3,0.8,0.3s0.6-0.1,0.8-0.3C21.8,99.5,21.8,98.8,21.3,98.3z M6.2,90.9c0-3.2,2.6-5.7,5.7-5.7c3.2,0,5.7,2.6,5.7,5.7
	c0,3.2-2.6,5.7-5.7,5.7C8.8,96.6,6.2,94.1,6.2,90.9z"/>
<path d="M-11.5,97.1h-7.1c-0.6,0-1.1-0.5-1.1-1.1V77.5c0-0.6,0.5-1.1,1.1-1.1h7.1c0.6,0,1.1,0.5,1.1,1.1V96
	C-10.4,96.7-10.9,97.1-11.5,97.1z M-17.5,94.9h4.9V78.6h-4.9C-17.5,78.6-17.5,94.9-17.5,94.9z"/>
<path d="M-0.4,97.1h-7.1c-0.6,0-1.1-0.5-1.1-1.1V62c0-0.6,0.5-1.1,1.1-1.1h7.1c0.6,0,1.1,0.5,1.1,1.1v34C0.8,96.7,0.3,97.1-0.4,97.1
	z M-6.4,94.9h4.9V63.2h-4.9V94.9z"/>
<path d="M3.6,84c-0.6,0-1.1-0.5-1.1-1.1V72.4c0-0.6,0.5-1.1,1.1-1.1h7c0.6,0,1.1,0.5,1.1,1.1v6.8c0,0.6-0.5,1.1-1.1,1.1
	s-1.1-0.5-1.1-1.1v-5.7H4.7v9.4C4.7,83.5,4.2,84,3.6,84z"/>
</svg>
