<?xml version="1.0" encoding="utf-8"?>
<!-- Generator: Adobe Illustrator 19.0.0, SVG Export Plug-In . SVG Version: 6.00 Build 0)  -->
<svg version="1.1" id="Layer_1" xmlns="http://www.w3.org/2000/svg" xmlns:xlink="http://www.w3.org/1999/xlink" x="0px" y="0px"
	 viewBox="-49 39.8 100 99.3" enable-background="new -49 39.8 100 99.3" xml:space="preserve">
<path d="M-13.8,116.2l3.6-9c0.1-0.2,0.2-0.3,0.4-0.3c0.2,0,0.3,0,0.5,0.2l3.6,4.2l4.3-2.9c0.2-0.1,0.4-0.1,0.5,0l4,2.1l3.7-3.6
	c0.2-0.2,0.5-0.2,0.7,0l4,3.9l3.9-3c0.2-0.2,0.5-0.1,0.7,0.1c0.2,0.2,0.1,0.5-0.1,0.7l-4.2,3.2c-0.2,0.2-0.5,0.1-0.6,0l-4-3.8
	l-3.6,3.5c-0.2,0.2-0.4,0.2-0.6,0.1l-4.1-2.2l-4.4,3c-0.2,0.1-0.5,0.1-0.7-0.1l-3.3-3.9l-3.3,8.2c-0.1,0.2-0.3,0.3-0.5,0.3
	c-0.1,0-0.1,0-0.2,0C-13.8,116.7-13.9,116.4-13.8,116.2z M45.6,51v14.2c0,3.7-5.2,5.8-10.7,6v9.7c0,0.6-0.4,1-1,1H7.8
	c-0.4,3-2.8,5.4-5.9,5.9v5.1H4c0.4,0,0.7,0.2,0.9,0.5c0.2,0.3,0.2,0.7,0,1L2,99.3h18.6c1.1,0,2,0.9,2,2v18l3.8,8.8
	c0.2,0.3,0.3,0.7,0.3,1c0,1.1-0.9,2-2,2c0,0,0,0,0,0h-47.7c-0.7,0-1.3-0.3-1.7-0.9s-0.4-1.3-0.2-1.9l3.9-9v-18c0-1.1,0.9-2,2-2h18.6
	L-3,94.4c-0.2-0.3-0.2-0.7,0-1c0.2-0.3,0.5-0.5,0.9-0.5h2.1v-5.1C-3.1,87.4-5.6,85-6,81.9h-25.9c-0.6,0-1-0.4-1-1v-9.7
	c-5.5-0.2-10.7-2.3-10.7-6V51c0-4,5.9-6.1,11.7-6.1c5.8,0,11.7,2.1,11.7,6.1v14.2c0,3.7-5.2,5.8-10.7,6v8.7H-6
	c0.4-3.1,2.9-5.5,5.9-5.9v-2.8c-5.5-0.2-10.7-2.3-10.7-6V51c0-4,5.9-6.1,11.7-6.1S12.6,47,12.6,51v14.2c0,3.7-5.2,5.8-10.7,6V74
	c3,0.5,5.4,2.9,5.9,5.9h25.1v-8.7c-5.5-0.2-10.7-2.3-10.7-6V51c0-4,5.9-6.1,11.7-6.1C39.7,44.9,45.6,47,45.6,51z M-39.6,51.8
	c0.9,1,3.7,2.1,7.7,2.1c4,0,6.8-1.1,7.7-2.1V51c-0.2-0.5-2.9-2.1-7.7-2.1c-4.8,0-7.4,1.5-7.7,2.1C-39.6,51-39.6,51.8-39.6,51.8z
	 M-39.6,57c1.4,0.9,4.1,1.8,7.7,1.8s6.3-0.8,7.7-1.8v-2.8c-2,1.1-4.9,1.6-7.7,1.6s-5.8-0.6-7.7-1.6C-39.6,54.2-39.6,57-39.6,57z
	 M-39.6,61.7c1.4,0.9,4.1,1.8,7.7,1.8s6.3-0.8,7.7-1.8v-2.4c-2.1,1-4.9,1.5-7.7,1.5s-5.6-0.5-7.7-1.5
	C-39.6,59.3-39.6,61.7-39.6,61.7z M-31.9,67.2c4.8,0,7.4-1.5,7.7-2.1V64c-2.1,1-4.9,1.5-7.7,1.5s-5.6-0.5-7.7-1.5v1.2
	C-39.4,65.7-36.7,67.2-31.9,67.2z M-6.8,51.8c0.9,1,3.7,2.1,7.7,2.1s6.8-1.1,7.7-2.1V51c-0.2-0.5-2.9-2.1-7.7-2.1
	c-4.8,0-7.4,1.5-7.7,2.1V51.8z M-6.8,57c1.4,0.9,4.1,1.8,7.7,1.8s6.3-0.8,7.7-1.8v-2.8c-2,1.1-4.9,1.6-7.7,1.6s-5.8-0.6-7.7-1.6V57z
	 M-6.8,61.7c1.4,0.9,4.1,1.8,7.7,1.8s6.3-0.8,7.7-1.8v-2.4c-2.1,1-4.9,1.5-7.7,1.5s-5.6-0.5-7.7-1.5V61.7z M0.9,67.2
	c4.8,0,7.4-1.5,7.7-2.1V64c-2.1,1-4.9,1.5-7.7,1.5S-4.7,65-6.8,64v1.2C-6.6,65.7-3.9,67.2,0.9,67.2z M-1.8,76.7L1,79.5l2.7-2.7
	c-0.8-0.5-1.8-0.9-2.8-0.9C-0.1,75.9-1,76.2-1.8,76.7z M-3.2,83.7l2.8-2.8l-2.8-2.8c-0.5,0.8-0.9,1.8-0.9,2.8
	C-4.1,81.9-3.8,82.9-3.2,83.7z M18.9,120.7h-36l-2.8,6.4h41.6L18.9,120.7z M-16.8,103.3v15.4h35.5v-15.4H-16.8z M-0.4,94.9l1.4,2.3
	l1.4-2.3H-0.4z M3.7,85L1,82.3l-2.8,2.8c0.8,0.5,1.7,0.8,2.7,0.8C1.9,85.9,2.9,85.6,3.7,85z M5.9,80.9c0-1-0.3-1.9-0.8-2.7l-2.7,2.7
	l2.7,2.7C5.6,82.8,5.9,81.9,5.9,80.9z M41.6,64c-2.1,1-4.9,1.5-7.7,1.5c-2.8,0-5.6-0.5-7.7-1.5v1.1c0.3,0.6,2.9,2.1,7.7,2.1
	c4.8,0,7.4-1.5,7.7-2.1V64z M41.6,59.3c-2.1,1-4.9,1.5-7.7,1.5c-2.8,0-5.6-0.5-7.7-1.5v2.4c1.4,0.9,4.1,1.8,7.7,1.8s6.3-0.8,7.7-1.8
	V59.3z M41.6,54.2c-2,1.1-4.9,1.6-7.7,1.6c-2.8,0-5.8-0.6-7.7-1.6V57c1.4,0.9,4.1,1.8,7.7,1.8s6.3-0.8,7.7-1.8V54.2z M41.6,51
	c-0.3-0.6-2.9-2.1-7.7-2.1c-4.8,0-7.4,1.5-7.7,2.1v0.8c0.9,1,3.7,2.1,7.7,2.1c4,0,6.8-1.1,7.7-2.1V51z"/>
</svg>
