<?xml version="1.0" encoding="UTF-8"?>
<svg enable-background="new -49 43.3 100 88.7" version="1.1" viewBox="-49 43.3 100 88.7" xml:space="preserve" xmlns="http://www.w3.org/2000/svg">
	<path d="m-35.9 86.5c0.5 0 1-0.2 1.4-0.6l7.5-7.5c1 0.6 2.2 0.9 3.5 0.9 1.4 0 2.8-0.4 3.9-1.2l6.6 5.7c-0.4 0.9-0.7 2-0.7 3 0 4 3.2 7.2 7.2 7.2s7.2-3 7.2-7c0-2.2-1-4.2-2.6-5.5l6.1-13.8c0.3 0 0.6 0.1 1 0.1 1.9 0 3.6-0.7 4.8-1.9l6.9 4.3c-0.2 0.6-0.3 1.3-0.3 2 0 4 3.2 7.2 7.2 7.2s7.2-3.2 7.2-7.2c0-1.3-0.3-2.5-0.9-3.5l9.2-9.2c0.8-0.8 0.8-2 0-2.8s-2-0.8-2.8 0l-9.2 9.2c-1-0.6-2.2-0.9-3.5-0.9-1.9 0-3.5 0.7-4.8 1.9l-6.9-4.3c0.2-0.6 0.3-1.3 0.3-2 0-4-3.2-7.2-7.2-7.2s-7.2 3.2-7.2 7.2c0 2.2 1 4.2 2.6 5.5l-6.1 13.8c-0.3 0-0.6-0.1-1-0.1-1.4 0-2.8 0.4-3.9 1.2l-6.6-5.7c0.4-0.9 0.7-2 0.7-3 0-4-3.2-7.2-7.2-7.2s-7.2 3.2-7.2 7.2c0 1.3 0.3 2.5 0.9 3.5l-7.5 7.5c-0.8 0.8-0.8 2 0 2.8 0.3 0.2 0.8 0.4 1.4 0.4z"/>
	<path d="m41 46.6h-80c-2.7 0-5 2.2-5 5v56.5c0 2.7 2.2 5 5 5h32.3v6.9h-11c-2.6 0-4.7 2.1-4.7 4.7v2.8c0 1.1 0.9 2 2 2h42.8c1.1 0 2-0.9 2-2v-2.8c0-2.6-2.1-4.7-4.7-4.7h-11v-6.9h32.3c2.7 0 5-2.2 5-5v-56.5c0-2.8-2.2-5-5-5zm-80 4h80c0.5 0 1 0.4 1 1v45.9h-82v-45.9c0-0.6 0.4-1 1-1zm59.4 74v0.8h-38.8v-0.8c0-0.4 0.3-0.7 0.7-0.7h37.4c0.4 0 0.7 0.3 0.7 0.7zm-15.7-4.7h-7.4v-6.9h7.4v6.9zm36.3-10.8h-80c-0.5 0-1-0.4-1-1v-6.6h82v6.6c0 0.5-0.4 1-1 1z"/>
</svg>
