<?xml version="1.0" encoding="UTF-8"?>
<svg enable-background="new -49 39.8 100 99.3" version="1.1" viewBox="-49 39.8 100 99.3" xml:space="preserve" xmlns="http://www.w3.org/2000/svg">
<path d="m-13.8 116.2 3.6-9c0.1-0.2 0.2-0.3 0.4-0.3s0.3 0 0.5 0.2l3.6 4.2 4.3-2.9c0.2-0.1 0.4-0.1 0.5 0l4 2.1 3.7-3.6c0.2-0.2 0.5-0.2 0.7 0l4 3.9 3.9-3c0.2-0.2 0.5-0.1 0.7 0.1s0.1 0.5-0.1 0.7l-4.2 3.2c-0.2 0.2-0.5 0.1-0.6 0l-4-3.8-3.6 3.5c-0.2 0.2-0.4 0.2-0.6 0.1l-4.1-2.2-4.4 3c-0.2 0.1-0.5 0.1-0.7-0.1l-3.3-3.9-3.3 8.2c-0.1 0.2-0.3 0.3-0.5 0.3h-0.2c-0.3-0.2-0.4-0.5-0.3-0.7zm59.4-65.2v14.2c0 3.7-5.2 5.8-10.7 6v9.7c0 0.6-0.4 1-1 1h-26.1c-0.4 3-2.8 5.4-5.9 5.9v5.1h2.1c0.4 0 0.7 0.2 0.9 0.5s0.2 0.7 0 1l-2.9 4.9h18.6c1.1 0 2 0.9 2 2v18l3.8 8.8c0.2 0.3 0.3 0.7 0.3 1 0 1.1-0.9 2-2 2h-47.7c-0.7 0-1.3-0.3-1.7-0.9s-0.4-1.3-0.2-1.9l3.9-9v-18c0-1.1 0.9-2 2-2h18.6l-2.6-4.9c-0.2-0.3-0.2-0.7 0-1s0.5-0.5 0.9-0.5h2.1v-5.1c-3.1-0.4-5.6-2.8-6-5.9h-25.9c-0.6 0-1-0.4-1-1v-9.7c-5.5-0.2-10.7-2.3-10.7-6v-14.2c0-4 5.9-6.1 11.7-6.1s11.7 2.1 11.7 6.1v14.2c0 3.7-5.2 5.8-10.7 6v8.7h24.9c0.4-3.1 2.9-5.5 5.9-5.9v-2.8c-5.5-0.2-10.7-2.3-10.7-6v-14.2c0-4 5.9-6.1 11.7-6.1s11.7 2.1 11.7 6.1v14.2c0 3.7-5.2 5.8-10.7 6v2.8c3 0.5 5.4 2.9 5.9 5.9h25.1v-8.7c-5.5-0.2-10.7-2.3-10.7-6v-14.2c0-4 5.9-6.1 11.7-6.1s11.7 2.1 11.7 6.1zm-85.2 0.8c0.9 1 3.7 2.1 7.7 2.1s6.8-1.1 7.7-2.1v-0.8c-0.2-0.5-2.9-2.1-7.7-2.1s-7.4 1.5-7.7 2.1v0.8zm0 5.2c1.4 0.9 4.1 1.8 7.7 1.8s6.3-0.8 7.7-1.8v-2.8c-2 1.1-4.9 1.6-7.7 1.6s-5.8-0.6-7.7-1.6v2.8zm0 4.7c1.4 0.9 4.1 1.8 7.7 1.8s6.3-0.8 7.7-1.8v-2.4c-2.1 1-4.9 1.5-7.7 1.5s-5.6-0.5-7.7-1.5v2.4zm7.7 5.5c4.8 0 7.4-1.5 7.7-2.1v-1.1c-2.1 1-4.9 1.5-7.7 1.5s-5.6-0.5-7.7-1.5v1.2c0.2 0.5 2.9 2 7.7 2zm25.1-15.4c0.9 1 3.7 2.1 7.7 2.1s6.8-1.1 7.7-2.1v-0.8c-0.2-0.5-2.9-2.1-7.7-2.1s-7.4 1.5-7.7 2.1v0.8zm0 5.2c1.4 0.9 4.1 1.8 7.7 1.8s6.3-0.8 7.7-1.8v-2.8c-2 1.1-4.9 1.6-7.7 1.6s-5.8-0.6-7.7-1.6v2.8zm0 4.7c1.4 0.9 4.1 1.8 7.7 1.8s6.3-0.8 7.7-1.8v-2.4c-2.1 1-4.9 1.5-7.7 1.5s-5.6-0.5-7.7-1.5v2.4zm7.7 5.5c4.8 0 7.4-1.5 7.7-2.1v-1.1c-2.1 1-4.9 1.5-7.7 1.5s-5.6-0.5-7.7-1.5v1.2c0.2 0.5 2.9 2 7.7 2zm-2.7 9.5 2.8 2.8 2.7-2.7c-0.8-0.5-1.8-0.9-2.8-0.9s-1.9 0.3-2.7 0.8zm-1.4 7 2.8-2.8-2.8-2.8c-0.5 0.8-0.9 1.8-0.9 2.8s0.3 2 0.9 2.8zm22.1 37h-36l-2.8 6.4h41.6l-2.8-6.4zm-35.7-17.4v15.4h35.5v-15.4h-35.5zm16.4-8.4 1.4 2.3 1.4-2.3h-2.8zm4.1-9.9-2.7-2.7-2.8 2.8c0.8 0.5 1.7 0.8 2.7 0.8s2-0.3 2.8-0.9zm2.2-4.1c0-1-0.3-1.9-0.8-2.7l-2.7 2.7 2.7 2.7c0.5-0.8 0.8-1.7 0.8-2.7zm35.7-16.9c-2.1 1-4.9 1.5-7.7 1.5s-5.6-0.5-7.7-1.5v1.1c0.3 0.6 2.9 2.1 7.7 2.1s7.4-1.5 7.7-2.1v-1.1zm0-4.7c-2.1 1-4.9 1.5-7.7 1.5s-5.6-0.5-7.7-1.5v2.4c1.4 0.9 4.1 1.8 7.7 1.8s6.3-0.8 7.7-1.8v-2.4zm0-5.1c-2 1.1-4.9 1.6-7.7 1.6s-5.8-0.6-7.7-1.6v2.8c1.4 0.9 4.1 1.8 7.7 1.8s6.3-0.8 7.7-1.8v-2.8zm0-3.2c-0.3-0.6-2.9-2.1-7.7-2.1s-7.4 1.5-7.7 2.1v0.8c0.9 1 3.7 2.1 7.7 2.1s6.8-1.1 7.7-2.1v-0.8z"/>
</svg>
